# xmcd
#
# Track frame offsets:
#	150
#	67608
#	119767
#	185791
#	220907
#	262721
#	298078
#
# Disc length: 4299 seconds
#
# Revision: 1
# Processed by: cddbd v1.5.2PL0 Copyright (c) Steve Scherf et al.
# Submitted via: audiograbber 1.83.01
#
DISCID=6a10c907
DTITLE=Grateful Dead - 95-07-05 Riverport Amphitheatre, Maryland Heights MO
DYEAR=1900
DGENRE=
TTITLE0=Corinna
TTITLE1=Drums
TTITLE2=Space
TTITLE3=Going Down The Road Feeling Bad
TTITLE4=Throwing Stones
TTITLE5=Not Fade Away
TTITLE6=Black Muddy River
EXTD=
EXTT0=
EXTT1=
EXTT2=
EXTT3=
EXTT4=
EXTT5=
EXTT6=
PLAYORDER=
